<?xml version="1.0" standalone="no"?>
<!DOCTYPE svg PUBLIC "-//W3C//DTD SVG 20010904//EN"
 "http://www.w3.org/TR/2001/REC-SVG-20010904/DTD/svg10.dtd">
<svg version="1.0" xmlns="http://www.w3.org/2000/svg"
 width="306.000000pt" height="165.000000pt" viewBox="0 0 306.000000 165.000000"
 preserveAspectRatio="xMidYMid meet">
<metadata>
Created by potrace 1.16, written by Peter Selinger 2001-2019
</metadata>
<g transform="translate(0.000000,165.000000) scale(0.100000,-0.100000)"
fill="#000000" stroke="none">
<path d="M0 825 l0 -825 1530 0 1530 0 0 825 0 825 -1530 0 -1530 0 0 -825z
m2255 241 c18 -14 36 -26 39 -26 4 0 25 14 48 30 49 36 96 39 124 9 14 -15 19
-36 19 -85 l0 -65 41 -18 c41 -19 84 -63 84 -87 0 -23 -50 -72 -91 -88 -40
-16 -41 -17 -34 -56 20 -118 -51 -167 -144 -99 l-42 30 -46 -30 c-45 -30 -94
-39 -121 -23 -20 13 -33 73 -26 119 6 42 6 42 -35 59 -41 16 -91 65 -91 88 0
24 43 68 84 87 l41 18 0 64 c0 84 21 112 78 104 21 -3 53 -17 72 -31z m-599
-99 c3 -3 3 -15 -1 -27 -6 -18 -12 -21 -37 -16 -30 6 -68 -7 -68 -24 0 -5 19
-19 43 -31 61 -31 77 -48 77 -83 -1 -52 -41 -86 -102 -86 -56 0 -78 10 -78 34
0 32 6 34 50 22 33 -8 43 -7 56 6 21 21 11 36 -41 58 -46 20 -65 44 -65 83 0
23 30 58 60 70 17 7 98 2 106 -6z m-1169 -12 c32 -23 38 -63 13 -97 -19 -25
-19 -30 -6 -56 8 -15 17 -44 21 -65 7 -36 7 -37 -24 -37 -27 0 -31 4 -42 43
-13 51 -25 67 -50 67 -16 0 -19 -8 -19 -55 0 -54 0 -55 -30 -55 l-30 0 0 135
0 135 73 0 c48 0 80 -5 94 -15z m963 -95 c0 -104 -1 -112 -25 -135 -17 -18
-35 -25 -64 -25 -44 0 -55 10 -46 39 4 13 12 17 25 14 40 -11 50 13 50 118 l0
99 30 0 30 0 0 -110z m-250 65 c0 -18 5 -25 20 -25 15 0 20 -7 20 -25 0 -18
-5 -25 -20 -25 -17 0 -20 -7 -20 -46 0 -37 4 -47 20 -51 13 -3 20 -14 20 -29
0 -20 -5 -24 -32 -24 -50 0 -68 24 -68 92 0 45 -3 58 -15 58 -9 0 -15 9 -15
25 0 16 6 25 15 25 8 0 15 9 15 19 0 20 12 29 43 30 12 1 17 -7 17 -24z m-502
-48 c12 -12 23 -38 24 -57 l3 -35 -63 -3 c-78 -4 -81 -26 -4 -30 43 -3 52 -6
52 -21 0 -23 -19 -31 -72 -31 -30 0 -46 7 -69 29 -63 64 -20 171 68 171 28 0
46 -7 61 -23z m192 3 c17 -17 20 -33 20 -100 0 -79 0 -80 -25 -80 -14 0 -25 5
-25 10 0 7 -6 7 -19 0 -48 -25 -101 1 -101 52 0 34 31 68 63 68 12 0 28 4 36
9 21 14 -5 24 -43 17 -26 -5 -35 -3 -40 10 -9 24 10 34 67 34 34 0 53 -6 67
-20z m210 11 c0 -28 -14 -41 -46 -41 -73 0 -65 -95 8 -102 25 -2 33 -8 33 -23
0 -17 -8 -20 -48 -23 -41 -3 -51 1 -77 27 -47 46 -36 125 21 157 27 15 109 19
109 5z"/>
<path d="M2233 918 c-6 -7 -20 -32 -33 -55 l-23 -41 30 -49 c29 -47 30 -48 86
-51 l56 -3 30 48 c17 26 31 53 31 58 0 6 -14 31 -30 58 -30 47 -31 47 -84 47
-31 0 -58 -5 -63 -12z"/>
</g>
</svg>
